<?xml version="1.0" encoding="UTF-8" standalone="no"?>
<!DOCTYPE svg PUBLIC "-//W3C//DTD SVG 1.1//EN" "http://www.w3.org/Graphics/SVG/1.1/DTD/svg11.dtd">
<svg width="100%" height="100%" viewBox="0 0 512 512" version="1.1" xmlns="http://www.w3.org/2000/svg" xmlns:xlink="http://www.w3.org/1999/xlink" xml:space="preserve" xmlns:serif="http://www.serif.com/" style="fill-rule:evenodd;clip-rule:evenodd;stroke-linecap:round;stroke-linejoin:round;stroke-miterlimit:1.5;">
    <g id="Wifi" transform="matrix(1.32313,0,0,1.49585,-475.74,16.8167)">
        <path d="M534,116.345C534,116.345 542.942,106.856 555.199,107.752C560.538,108.142 566.393,110.647 572.501,116.458C575.834,119.628 581.113,119.496 584.283,116.164C587.453,112.832 587.321,107.553 583.989,104.383C574.341,95.204 564.847,91.746 556.414,91.129C536.537,89.677 521.946,104.835 521.946,104.835C518.769,108.161 518.891,113.441 522.218,116.617C525.544,119.793 530.824,119.671 534,116.345Z" style="fill:white;"/>
        <path d="M513.037,94.858C513.037,94.858 530.599,75.572 556.125,77.497C567.326,78.342 579.93,83.365 593.347,95.436C596.767,98.512 602.04,98.234 605.116,94.815C608.192,91.396 607.914,86.122 604.495,83.046C587.587,67.834 571.494,61.943 557.379,60.878C523.833,58.347 500.726,83.624 500.726,83.624C497.626,87.021 497.867,92.296 501.265,95.397C504.662,98.497 509.937,98.256 513.037,94.858L513.037,94.858Z" style="fill:white;"/>
        <path d="M491.613,74.657C491.613,74.657 518.953,44.714 558.306,47.704C575.408,49.003 594.649,56.625 614.992,75.187C618.39,78.287 623.665,78.045 626.765,74.648C629.865,71.25 629.624,65.975 626.226,62.875C602.378,41.115 579.617,32.608 559.569,31.085C512.239,27.489 479.317,63.405 479.317,63.405C476.212,66.799 476.446,72.074 479.839,75.179C483.232,78.284 488.508,78.05 491.613,74.657L491.613,74.657Z" style="fill:white;"/>
    </g>
    <g id="Car" transform="matrix(0.999826,-0.0186726,0.0186726,0.999826,-260.216,124.777)">
        <path d="M364.24,263.49C364.24,263.49 340.87,265.043 338.853,250.472C336.836,235.901 322.414,184.903 429.136,178.186C429.136,178.186 436.29,107.492 598.545,128.435C598.545,128.435 673.004,135.332 682.66,172.957C682.66,172.957 702.437,258.053 660.469,261.418C660.469,261.418 662.207,213.513 622.328,214.001C582.448,214.489 580.071,250.431 584.131,265.874L442.074,262.452C442.074,262.452 444.747,210.559 403.913,211.052C363.079,211.545 363.809,252.022 364.24,263.49Z" style="fill:white;stroke:white;stroke-width:6.25px;"/>
        <g transform="matrix(0.852206,0,0,0.912746,35.1922,-3.00973)">
            <ellipse cx="431.326" cy="278.352" rx="29.336" ry="27.39" style="fill:white;stroke:white;stroke-width:7.08px;"/>
        </g>
        <g transform="matrix(0.852206,0,0,0.912746,254.205,-1.6662)">
            <ellipse cx="431.326" cy="278.352" rx="29.336" ry="27.39" style="fill:white;stroke:white;stroke-width:7.08px;"/>
        </g>
    </g>
</svg>
